<svg width="41" height="45" viewBox="0 0 41 45" fill="none" xmlns="http://www.w3.org/2000/svg">
<path d="M35.8521 24.6156L22.7592 0.65918L18.0635 9.56692L28.5971 29.0245C28.6182 29.047 28.6182 29.0695 28.6394 29.092C29.6335 31.004 28.9355 32.6686 28.5759 33.2984C28.2163 33.9507 27.1799 35.4354 25.0859 35.4354L21.2997 35.4129L4.67452 35.3454L0 44.3656L15.1658 44.3206L25.0647 44.2981C29.5277 44.3206 33.5466 41.8687 35.7886 37.7523C38.0519 33.6808 38.0519 28.7545 35.8521 24.6156Z" fill="#0B45D6"/>
<path d="M40.3571 0.613281L22.7589 0.65827L27.6661 9.63349H35.6826L40.3571 0.613281Z" fill="#277FFF"/>
<path d="M11.76 15.9544C11.7389 15.9319 11.7389 15.9094 11.7177 15.8869C10.7236 13.9749 11.4216 12.3103 11.76 11.6804C12.1196 11.0281 13.1561 9.54348 15.2501 9.54348L18.0632 9.56598L22.7589 0.635742L15.2924 0.680731C10.8294 0.658236 6.81055 3.11011 4.56848 7.20408C2.3264 11.3205 2.3264 16.2243 4.52617 20.3632L17.6402 44.3871L22.2936 35.4119L11.76 15.9544Z" fill="#277FFF"/>
</svg>
