<svg width="49" height="49" viewBox="0 0 49 49" fill="none" xmlns="http://www.w3.org/2000/svg">
<path d="M24.5 46C27.324 46.0036 30.1208 45.4492 32.7298 44.3685C35.3387 43.2878 37.7084 41.7021 39.7026 39.7026C41.7021 37.7084 43.2878 35.3387 44.3685 32.7298C45.4492 30.1208 46.0036 27.324 46 24.5C46.0036 21.6761 45.4491 18.8792 44.3684 16.2703C43.2877 13.6613 41.7021 11.2916 39.7026 9.29736C37.7084 7.29789 35.3387 5.71224 32.7298 4.63153C30.1208 3.55082 27.324 2.99636 24.5 3.00002C21.6761 2.99642 18.8792 3.5509 16.2703 4.63161C13.6613 5.71232 11.2916 7.29794 9.29736 9.29736C7.29794 11.2916 5.71232 13.6613 4.63161 16.2703C3.5509 18.8792 2.99642 21.6761 3.00002 24.5C2.99636 27.324 3.55082 30.1208 4.63153 32.7298C5.71224 35.3387 7.29789 37.7084 9.29736 39.7026C11.2916 41.7021 13.6613 43.2877 16.2703 44.3684C18.8792 45.4491 21.6761 46.0036 24.5 46V46Z" stroke="#0B45D6" stroke-width="4.3" stroke-linejoin="round"/>
<path fill-rule="evenodd" clip-rule="evenodd" d="M24.5001 38.4736C25.2129 38.4736 25.8965 38.1905 26.4005 37.6865C26.9045 37.1825 27.1876 36.4989 27.1876 35.7861C27.1876 35.0734 26.9045 34.3898 26.4005 33.8858C25.8965 33.3818 25.2129 33.0986 24.5001 33.0986C23.7874 33.0986 23.1038 33.3818 22.5998 33.8858C22.0958 34.3898 21.8126 35.0734 21.8126 35.7861C21.8126 36.4989 22.0958 37.1825 22.5998 37.6865C23.1038 38.1905 23.7874 38.4736 24.5001 38.4736Z" fill="#0B45D6"/>
<path d="M24.4999 11.6006V28.8006" stroke="#0B45D6" stroke-width="4.3" stroke-linecap="round" stroke-linejoin="round"/>
</svg>
