<svg width="269" height="45" viewBox="0 0 269 45" fill="none" xmlns="http://www.w3.org/2000/svg">
<path d="M35.8521 24.6156L22.7592 0.65918L18.0635 9.56692L28.5971 29.0245C28.6182 29.047 28.6182 29.0695 28.6394 29.092C29.6335 31.004 28.9355 32.6686 28.5759 33.2984C28.2163 33.9507 27.1799 35.4354 25.0859 35.4354L21.2997 35.4129L4.67452 35.3454L0 44.3656L15.1658 44.3206L25.0647 44.2981C29.5277 44.3206 33.5466 41.8687 35.7886 37.7523C38.0519 33.6808 38.0519 28.7545 35.8521 24.6156Z" fill="#0B45D6"/>
<path d="M40.3571 0.613281L22.7589 0.65827L27.6661 9.63349H35.6826L40.3571 0.613281Z" fill="#277FFF"/>
<path d="M11.76 15.9544C11.7389 15.9319 11.7389 15.9094 11.7177 15.8869C10.7236 13.9749 11.4216 12.3103 11.76 11.6804C12.1196 11.0281 13.1561 9.54348 15.2501 9.54348L18.0632 9.56598L22.7589 0.635742L15.2924 0.680731C10.8294 0.658236 6.81055 3.11011 4.56848 7.20408C2.3264 11.3205 2.3264 16.2243 4.52617 20.3632L17.6402 44.3871L22.2936 35.4119L11.76 15.9544Z" fill="#277FFF"/>
<path d="M55.1777 34.9164C53.3798 34.399 51.9415 33.7242 50.8628 32.9144L52.9568 28.5055C54.0144 29.2478 55.2624 29.8552 56.743 30.2826C58.2024 30.7325 59.6619 30.9574 61.0791 30.9574C64.3364 30.9574 65.9651 30.0351 65.9651 28.2131C65.9651 27.3358 65.5421 26.751 64.7172 26.3911C63.8922 26.0537 62.5597 25.7162 60.7195 25.4238C58.7947 25.1089 57.2295 24.749 56.0238 24.3666C54.8182 23.9617 53.7606 23.2644 52.8722 22.2521C51.9838 21.2399 51.5396 19.8452 51.5396 18.0457C51.5396 15.6838 52.4703 13.8168 54.3105 12.3996C56.1507 10.9825 58.6466 10.2852 61.7982 10.2852C63.4058 10.2852 64.9921 10.4876 66.5997 10.87C68.2072 11.2524 69.5186 11.7698 70.5339 12.4221L68.4399 16.831C66.4516 15.5938 64.2307 14.964 61.7559 14.964C60.1484 14.964 58.9427 15.2114 58.1178 15.7288C57.2929 16.2461 56.8699 16.921 56.8699 17.7533C56.8699 18.6755 57.3141 19.3504 58.2024 19.7328C59.0908 20.1152 60.4657 20.4751 62.327 20.8125C64.1884 21.1274 65.7113 21.4873 66.9169 21.8697C68.1014 22.2746 69.1379 22.9494 70.0051 23.9167C70.8723 24.884 71.2953 26.2336 71.2953 28.0107C71.2953 30.3276 70.3435 32.1946 68.461 33.5892C66.5785 34.9839 63.998 35.6812 60.7406 35.6812C58.8158 35.7037 56.9756 35.4563 55.1777 34.9164Z" fill="black"/>
<path d="M94.414 12.9398C96.2331 14.6944 97.1426 17.3262 97.1426 20.8578V35.3891H91.9816V32.3749C91.3047 33.4546 90.3529 34.2869 89.1261 34.8493C87.8993 35.4116 86.3975 35.7041 84.642 35.7041C82.8864 35.7041 81.3634 35.3891 80.052 34.7593C78.7406 34.1295 77.7254 33.2522 77.0273 32.105C76.3082 30.9803 75.9486 29.6981 75.9486 28.2809C75.9486 26.054 76.7312 24.2545 78.2753 22.9273C79.8405 21.5776 82.2941 20.9028 85.6361 20.9028H91.6643V20.5204C91.6643 18.7884 91.1778 17.4612 90.2048 16.5389C89.2319 15.6167 87.7724 15.1443 85.8687 15.1443C84.5573 15.1443 83.2671 15.3692 81.998 15.7966C80.7289 16.224 79.6713 16.8314 78.7829 17.6187L76.6466 13.3897C77.8734 12.4 79.3329 11.6352 81.0462 11.1178C82.7595 10.6004 84.5785 10.3305 86.5033 10.3305C89.9722 10.308 92.595 11.1853 94.414 12.9398ZM89.4434 30.4854C90.501 29.8106 91.2624 28.8658 91.6855 27.6286V24.7493H86.0591C82.9075 24.7493 81.3423 25.8516 81.3423 28.056C81.3423 29.1132 81.7442 29.9455 82.5268 30.5529C83.3094 31.1827 84.4093 31.4751 85.8053 31.4751C87.159 31.4976 88.3858 31.1602 89.4434 30.4854Z" fill="black"/>
<path d="M111.039 9.29608V10.7807H117.448V15.4145H111.208V35.3895H105.751V15.4145H101.902V10.7807H105.751V9.2061C105.751 6.55177 106.47 4.43731 107.93 2.9077C109.389 1.37809 111.441 0.613281 114.085 0.613281C116.179 0.613281 117.829 1.06317 119.013 1.96294L117.491 6.32683C116.56 5.652 115.545 5.31459 114.487 5.31459C112.181 5.29209 111.039 6.64175 111.039 9.29608Z" fill="black"/>
<path d="M144.036 24.8399H125.74C126.057 26.6619 126.903 28.1241 128.257 29.1813C129.611 30.2385 131.282 30.7784 133.291 30.7784C135.85 30.7784 137.966 29.8786 139.615 28.0791L142.534 31.6557C141.477 32.9828 140.165 33.9951 138.558 34.6699C136.95 35.3447 135.152 35.6821 133.143 35.6821C130.584 35.6821 128.32 35.1423 126.374 34.0626C124.428 32.9828 122.927 31.4757 121.848 29.5412C120.79 27.6067 120.262 25.4248 120.262 22.9729C120.262 20.566 120.769 18.384 121.806 16.4495C122.842 14.515 124.28 13.0079 126.099 11.9282C127.94 10.8485 129.991 10.3086 132.297 10.3086C134.56 10.3086 136.591 10.8485 138.389 11.9057C140.186 12.9629 141.582 14.47 142.577 16.4045C143.571 18.3391 144.078 20.566 144.078 23.1078C144.142 23.5352 144.1 24.0976 144.036 24.8399ZM127.919 16.607C126.713 17.7092 125.973 19.1713 125.719 20.9934H138.939C138.706 19.1938 137.987 17.7542 136.802 16.6295C135.618 15.5048 134.116 14.9649 132.339 14.9649C130.605 14.9649 129.124 15.5048 127.919 16.607Z" fill="black"/>
<path d="M169.249 11.9054C171.047 12.9626 172.443 14.4472 173.458 16.3592C174.473 18.2712 174.981 20.4982 174.981 22.995C174.981 25.4919 174.473 27.7188 173.458 29.6534C172.443 31.5879 171.025 33.0725 169.249 34.1297C167.451 35.1869 165.42 35.7043 163.157 35.7043C160.005 35.7043 157.531 34.5796 155.69 32.3527V44.3871H150.233V10.6007H155.437V13.8624C156.346 12.6927 157.446 11.7929 158.779 11.208C160.111 10.6232 161.571 10.3308 163.157 10.3308C165.441 10.3083 167.472 10.8481 169.249 11.9054ZM167.514 28.6186C168.805 27.2015 169.46 25.312 169.46 22.995C169.46 20.6781 168.805 18.8111 167.514 17.3715C166.224 15.9543 164.574 15.2345 162.565 15.2345C161.253 15.2345 160.069 15.5494 159.032 16.1793C157.975 16.8091 157.15 17.7089 156.537 18.9011C155.923 20.0708 155.627 21.4429 155.627 22.995C155.627 24.5471 155.923 25.8968 156.537 27.089C157.15 28.2587 157.975 29.181 159.032 29.8108C160.09 30.4407 161.253 30.7556 162.565 30.7556C164.574 30.7556 166.224 30.0358 167.514 28.6186Z" fill="black"/>
<path d="M194.567 10.3086V15.8422C194.102 15.7522 193.679 15.7072 193.298 15.7072C191.183 15.7072 189.512 16.3596 188.328 17.6867C187.143 18.9914 186.53 20.9034 186.53 23.3778V35.4122H181.073V10.601H186.276V14.2226C187.841 11.6133 190.591 10.3086 194.567 10.3086Z" fill="black"/>
<path d="M221.662 24.8399H203.366C203.683 26.6619 204.53 28.1241 205.883 29.1813C207.237 30.2385 208.908 30.7784 210.917 30.7784C213.477 30.7784 215.592 29.8786 217.242 28.0791L220.161 31.6557C219.103 32.9828 217.792 33.9951 216.184 34.6699C214.577 35.3447 212.779 35.6822 210.769 35.6822C208.21 35.6822 205.947 35.1423 204.001 34.0626C202.055 32.9828 200.553 31.4757 199.474 29.5412C198.417 27.6067 197.888 25.4248 197.888 22.9729C197.888 20.566 198.396 18.384 199.432 16.4495C200.468 14.515 201.907 13.0079 203.726 11.9282C205.566 10.8485 207.618 10.3086 209.923 10.3086C212.186 10.3086 214.217 10.8485 216.015 11.9057C217.813 12.9629 219.209 14.47 220.203 16.4045C221.197 18.3391 221.705 20.566 221.705 23.1078C221.747 23.5352 221.726 24.0976 221.662 24.8399ZM205.545 16.607C204.339 17.7092 203.599 19.1713 203.345 20.9934H216.565C216.332 19.1938 215.613 17.7542 214.428 16.6295C213.244 15.5048 211.742 14.9649 209.966 14.9649C208.231 14.9649 206.75 15.5048 205.545 16.607Z" fill="black"/>
<path d="M229.531 34.9164C227.733 34.399 226.295 33.7242 225.216 32.9144L227.31 28.5055C228.368 29.2478 229.616 29.8552 231.096 30.2826C232.556 30.7325 234.015 30.9574 235.432 30.9574C238.69 30.9574 240.318 30.0351 240.318 28.2131C240.318 27.3358 239.895 26.751 239.07 26.3911C238.245 26.0537 236.913 25.7162 235.073 25.4238C233.148 25.1089 231.583 24.749 230.377 24.3666C229.171 23.9617 228.114 23.2644 227.225 22.2521C226.337 21.2399 225.893 19.8452 225.893 18.0457C225.893 15.6838 226.824 13.8168 228.664 12.3996C230.504 10.9825 233 10.2852 236.151 10.2852C237.759 10.2852 239.345 10.4876 240.953 10.87C242.56 11.2524 243.872 11.7698 244.887 12.4221L242.793 16.831C240.805 15.5938 238.584 14.964 236.109 14.964C234.502 14.964 233.296 15.2114 232.471 15.7288C231.646 16.2461 231.223 16.921 231.223 17.7533C231.223 18.6755 231.667 19.3504 232.556 19.7328C233.444 20.1152 234.819 20.4751 236.68 20.8125C238.542 21.1274 240.065 21.4873 241.27 21.8697C242.455 22.2746 243.491 22.9494 244.358 23.9167C245.226 24.884 245.649 26.2336 245.649 28.0107C245.649 30.3276 244.697 32.1946 242.814 33.5892C240.932 34.9839 238.351 35.6812 235.094 35.6812C233.19 35.7037 231.329 35.4563 229.531 34.9164Z" fill="black"/>
<path d="M252.882 34.9164C251.084 34.399 249.646 33.7242 248.567 32.9144L250.661 28.5055C251.719 29.2478 252.967 29.8552 254.448 30.2826C255.907 30.7325 257.367 30.9574 258.784 30.9574C262.041 30.9574 263.67 30.0351 263.67 28.2131C263.67 27.3358 263.247 26.751 262.422 26.3911C261.597 26.0537 260.264 25.7162 258.424 25.4238C256.499 25.1089 254.934 24.749 253.728 24.3666C252.523 23.9617 251.465 23.2644 250.577 22.2521C249.688 21.2399 249.244 19.8452 249.244 18.0457C249.244 15.6838 250.175 13.8168 252.015 12.3996C253.855 10.9825 256.351 10.2852 259.503 10.2852C261.11 10.2852 262.697 10.4876 264.304 10.87C265.912 11.2524 267.223 11.7698 268.238 12.4221L266.144 16.831C264.156 15.5938 261.935 14.964 259.461 14.964C257.853 14.964 256.647 15.2114 255.822 15.7288C254.998 16.2461 254.574 16.921 254.574 17.7533C254.574 18.6755 255.019 19.3504 255.907 19.7328C256.795 20.1152 258.17 20.4751 260.032 20.8125C261.893 21.1274 263.416 21.4873 264.622 21.8697C265.806 22.2746 266.842 22.9494 267.71 23.9167C268.577 24.884 269 26.2336 269 28.0107C269 30.3276 268.048 32.1946 266.166 33.5892C264.283 34.9839 261.703 35.6812 258.445 35.6812C256.542 35.7037 254.68 35.4563 252.882 34.9164Z" fill="black"/>
</svg>
